# xmcd
#
# Track frame offsets:
#	150
#	35598
#	72988
#	104930
#	138936
#	175440
#	219862
#	249546
#	291584
#	333204
#
# Disc length: 4803 seconds
#
# Revision: 1
# Processed by: cddbd v1.5.2PL0 Copyright (c) Steve Scherf et al.
# Submitted via: EZCDAudioConverter 2.4.0.1
#
DISCID=a112c10a
DTITLE=Various Artist - Akella Presents - vol.92 - Long Time Blues   CD2
DYEAR=2016
DGENRE=Blues
TTITLE0=Blindside Blues Band - 79 Cent Blues
TTITLE1=Nobby Reed Project - Mr Sun
TTITLE2=Joe Bonamassa and Beth Hart - I Love You More Than You'll Ever Know
TTITLE3=Gregg Wright - A House Divided
TTITLE4=Bugs Henderson and Jerry Branch - Big Leg Woman
TTITLE5=Lurrie Bell - Leaning Tree
TTITLE6=Lazer Lloyd - Time To Love
TTITLE7=Beto Lovato - El Color de Sangre
TTITLE8=Al Basile - Mr. Graham Bell
TTITLE9=Trampled Under Foot - The Fool
EXTD=
EXTT0=
EXTT1=
EXTT2=
EXTT3=
EXTT4=
EXTT5=
EXTT6=
EXTT7=
EXTT8=
EXTT9=
PLAYORDER=
